# Blender v2.78 (sub 0) OBJ File: ''
# www.blender.org
mtllib woodenplatform.mtl
o woodenplatform
v -0.000448 -0.501031 -0.464884
v -0.000448 -0.390164 -0.464884
v 0.136799 -0.501031 -0.444197
v 0.136799 -0.390164 -0.444197
v 0.261850 -0.501031 -0.383976
v 0.261850 -0.390164 -0.383976
v 0.363595 -0.501031 -0.289570
v 0.363595 -0.390164 -0.289570
v 0.432994 -0.501031 -0.169368
v 0.432994 -0.390164 -0.169368
v 0.463879 -0.501031 -0.034051
v 0.463879 -0.390164 -0.034051
v 0.453507 -0.501031 0.104358
v 0.453507 -0.390164 0.104358
v 0.402799 -0.501031 0.233560
v 0.402799 -0.390164 0.233560
v 0.316260 -0.501031 0.342076
v 0.316260 -0.390164 0.342076
v 0.201581 -0.501031 0.420263
v 0.201581 -0.390164 0.420263
v 0.068950 -0.501031 0.461174
v 0.068950 -0.390164 0.461174
v -0.069847 -0.501031 0.461174
v -0.069847 -0.390164 0.461174
v -0.202477 -0.501031 0.420263
v -0.202477 -0.390164 0.420263
v -0.317156 -0.501031 0.342076
v -0.317156 -0.390164 0.342076
v -0.403695 -0.501031 0.233560
v -0.403695 -0.390164 0.233560
v -0.454403 -0.501031 0.104358
v -0.454403 -0.390164 0.104358
v -0.464775 -0.501031 -0.034051
v -0.464775 -0.390164 -0.034051
v -0.433890 -0.501031 -0.169368
v -0.433890 -0.390164 -0.169368
v -0.364492 -0.501031 -0.289569
v -0.364492 -0.390164 -0.289569
v -0.262747 -0.501031 -0.383975
v -0.262747 -0.390164 -0.383975
v -0.137695 -0.501031 -0.444197
v -0.137695 -0.390164 -0.444197
v -0.000448 -0.365383 -0.427486
v 0.125775 -0.365383 -0.408461
v 0.240783 -0.365383 -0.353076
v 0.334357 -0.365383 -0.266253
v 0.398182 -0.365383 -0.155705
v 0.426586 -0.365383 -0.031256
v 0.417047 -0.365383 0.096036
v 0.370411 -0.365383 0.214861
v 0.290823 -0.365383 0.314661
v 0.185355 -0.365383 0.386569
v 0.063376 -0.365383 0.424194
v -0.064273 -0.365383 0.424194
v -0.186251 -0.365383 0.386569
v -0.291720 -0.365383 0.314661
v -0.371308 -0.365383 0.214861
v -0.417943 -0.365383 0.096036
v -0.427482 -0.365383 -0.031256
v -0.399078 -0.365383 -0.155705
v -0.335253 -0.365383 -0.266253
v -0.241680 -0.365383 -0.353076
v -0.126672 -0.365383 -0.408461
v -0.000448 -0.384854 -0.349959
v 0.102924 -0.384854 -0.334379
v 0.197111 -0.384854 -0.289020
v 0.273744 -0.384854 -0.217915
v 0.326014 -0.384854 -0.127381
v 0.349276 -0.384854 -0.025463
v 0.341464 -0.384854 0.078784
v 0.303271 -0.384854 0.176098
v 0.238092 -0.384854 0.257830
v 0.151717 -0.384854 0.316719
v 0.051822 -0.384854 0.347533
v -0.052718 -0.384854 0.347533
v -0.152613 -0.384854 0.316719
v -0.238988 -0.384854 0.257830
v -0.304167 -0.384854 0.176098
v -0.342360 -0.384854 0.078784
v -0.350172 -0.384854 -0.025463
v -0.326910 -0.384854 -0.127381
v -0.274640 -0.384854 -0.217915
v -0.198007 -0.384854 -0.289020
v -0.103820 -0.384854 -0.334378
vt 0.2022 0.8323
vt 0.1436 0.8810
vt 0.1436 0.8323
vt 0.0639 0.5400
vt 0.0053 0.5888
vt 0.0053 0.5400
vt 0.0639 0.5888
vt 0.0053 0.6534
vt 0.0639 0.6534
vt 0.0053 0.7281
vt 0.0639 0.7281
vt 0.0053 0.8063
vt 0.0639 0.8063
vt 0.0053 0.8810
vt 0.0639 0.8810
vt 0.0053 0.9456
vt 0.0639 0.9456
vt 0.0053 0.9944
vt 0.0744 0.8969
vt 0.1330 0.8323
vt 0.1330 0.8969
vt 0.0744 0.8323
vt 0.1330 0.7575
vt 0.0744 0.7575
vt 0.1330 0.6794
vt 0.0744 0.6794
vt 0.1330 0.6046
vt 0.0744 0.6046
vt 0.1330 0.5400
vt 0.2714 0.5400
vt 0.2128 0.6148
vt 0.2128 0.5400
vt 0.2714 0.6148
vt 0.2128 0.6929
vt 0.2714 0.6929
vt 0.2128 0.7677
vt 0.2714 0.7677
vt 0.2128 0.8323
vt 0.2022 0.5400
vt 0.1436 0.6148
vt 0.1436 0.5400
vt 0.2022 0.6148
vt 0.1436 0.6929
vt 0.3061 0.0115
vt 0.2345 0.0266
vt 0.2330 0.0056
vt 0.2022 0.6929
vt 0.1436 0.7677
vt 0.2022 0.7677
vt 0.9731 0.1534
vt 0.6615 0.5114
vt 0.8061 0.0115
vt 0.1103 0.4558
vt 0.0982 0.3785
vt 0.1358 0.4217
vt 0.0053 0.2672
vt 0.0351 0.1961
vt 0.0251 0.2672
vt 0.1615 0.5114
vt 0.2345 0.5078
vt 0.2330 0.5288
vt 0.4731 0.3810
vt 0.4752 0.3032
vt 0.4947 0.3063
vt 0.4318 0.0888
vt 0.3645 0.0583
vt 0.3744 0.0400
vt 0.0480 0.1194
vt 0.1103 0.0786
vt 0.0644 0.1313
vt 0.0480 0.4150
vt 0.0979 0.4723
vt 0.3744 0.4944
vt 0.4173 0.4313
vt 0.4318 0.4456
vt 0.4731 0.1534
vt 0.4752 0.2312
vt 0.4553 0.1625
vt 0.1615 0.0230
vt 0.1687 0.0426
vt 0.0351 0.3383
vt 0.0162 0.3445
vt 0.3017 0.5024
vt 0.3061 0.5229
vt 0.3017 0.0320
vt 0.0162 0.1899
vt 0.1687 0.4918
vt 0.4553 0.3719
vt 0.4173 0.1031
vt 0.0979 0.0621
vt 0.4947 0.2281
vt 0.0644 0.4031
vt 0.3645 0.4761
vt 0.4347 0.2966
vt 0.0982 0.1559
vt 0.2926 0.0746
vt 0.2375 0.0702
vt 0.1837 0.0833
vt 0.1837 0.4511
vt 0.1358 0.1127
vt 0.4347 0.2378
vt 0.2375 0.4642
vt 0.4184 0.1815
vt 0.2926 0.4598
vt 0.0743 0.2090
vt 0.3872 0.1328
vt 0.3440 0.4383
vt 0.0660 0.2672
vt 0.3440 0.0961
vt 0.3872 0.4016
vt 0.0743 0.3254
vt 0.4184 0.3529
vt 0.2022 0.8810
vt 0.0639 0.9944
vt 0.0744 0.5400
vt 0.2714 0.8323
vt 0.8744 0.0400
vt 0.9318 0.0888
vt 0.9947 0.2281
vt 0.9318 0.4456
vt 0.9947 0.3063
vt 0.9731 0.3810
vt 0.8744 0.4944
vt 0.8061 0.5229
vt 0.7330 0.5288
vt 0.5979 0.4723
vt 0.5480 0.4150
vt 0.5162 0.3445
vt 0.5053 0.2672
vt 0.5162 0.1899
vt 0.6615 0.0230
vt 0.5480 0.1194
vt 0.5979 0.0621
vt 0.7330 0.0056
vn 0.1490 0.0000 -0.9888
vn 0.4339 0.0000 -0.9010
vn 0.6802 0.0000 -0.7331
vn 0.8660 0.0000 -0.5000
vn 0.9749 0.0000 -0.2225
vn 0.9972 0.0000 0.0747
vn 0.9309 0.0000 0.3653
vn 0.7818 0.0000 0.6235
vn 0.5633 0.0000 0.8262
vn 0.2948 0.0000 0.9556
vn -0.0000 0.0000 1.0000
vn -0.2948 0.0000 0.9556
vn -0.5633 0.0000 0.8262
vn -0.7818 0.0000 0.6235
vn -0.9309 0.0000 0.3653
vn -0.9972 0.0000 0.0747
vn -0.9749 0.0000 -0.2225
vn -0.8660 0.0000 -0.5000
vn -0.6802 0.0000 -0.7331
vn 0.5551 0.8307 0.0416
vn -0.4339 0.0000 -0.9010
vn -0.1490 0.0000 -0.9888
vn 0.0000 -1.0000 0.0000
vn 0.1925 0.9692 -0.1535
vn -0.0000 0.8307 0.5567
vn -0.5551 0.8307 0.0416
vn -0.0830 0.8307 -0.5505
vn 0.4821 0.8307 -0.2783
vn 0.3136 0.8307 0.4600
vn -0.4352 0.8307 0.3471
vn -0.3786 0.8307 -0.4081
vn 0.2415 0.8307 -0.5016
vn 0.5182 0.8307 0.2034
vn -0.1641 0.8307 0.5320
vn -0.5427 0.8307 -0.1239
vn 0.5427 0.8307 -0.1239
vn 0.1641 0.8307 0.5320
vn -0.5182 0.8307 0.2034
vn -0.2415 0.8307 -0.5016
vn 0.3786 0.8307 -0.4081
vn 0.4352 0.8307 0.3471
vn 0.0830 0.8307 -0.5505
vn -0.3136 0.8307 0.4600
vn -0.4821 0.8307 -0.2783
vn 0.0000 1.0000 0.0000
vn -0.2292 0.9692 -0.0899
vn 0.2292 0.9692 -0.0899
vn -0.1925 0.9692 -0.1535
vn -0.0367 0.9692 0.2434
vn 0.2455 0.9692 -0.0184
vn -0.1387 0.9692 -0.2034
vn -0.1068 0.9692 0.2218
vn 0.2400 0.9692 0.0548
vn -0.0726 0.9692 -0.2352
vn -0.1674 0.9692 0.1805
vn 0.2132 0.9692 0.1231
vn 0.0000 0.9692 -0.2462
vn -0.2132 0.9692 0.1231
vn 0.1674 0.9692 0.1805
vn 0.0726 0.9692 -0.2352
vn -0.2400 0.9692 0.0548
vn 0.1068 0.9692 0.2218
vn 0.1387 0.9692 -0.2034
vn -0.2455 0.9692 -0.0184
vn 0.0367 0.9692 0.2434
usemtl None
s off
f 2/1/1 3/2/1 1/3/1
f 4/4/2 5/5/2 3/6/2
f 6/7/3 7/8/3 5/5/3
f 8/9/4 9/10/4 7/8/4
f 10/11/5 11/12/5 9/10/5
f 12/13/6 13/14/6 11/12/6
f 14/15/7 15/16/7 13/14/7
f 16/17/8 17/18/8 15/16/8
f 18/19/9 19/20/9 17/21/9
f 20/22/10 21/23/10 19/20/10
f 22/24/11 23/25/11 21/23/11
f 24/26/12 25/27/12 23/25/12
f 26/28/13 27/29/13 25/27/13
f 28/30/14 29/31/14 27/32/14
f 30/33/15 31/34/15 29/31/15
f 32/35/16 33/36/16 31/34/16
f 34/37/17 35/38/17 33/36/17
f 36/39/18 37/40/18 35/41/18
f 38/42/19 39/43/19 37/40/19
f 12/44/20 49/45/20 14/46/20
f 40/47/21 41/48/21 39/43/21
f 42/49/22 1/3/22 41/48/22
f 3/50/23 19/51/23 39/52/23
f 57/53/24 77/54/24 78/55/24
f 24/56/25 53/57/25 54/58/25
f 32/59/26 59/60/26 34/61/26
f 42/62/27 43/63/27 2/64/27
f 8/65/28 47/66/28 10/67/28
f 20/68/29 51/69/29 52/70/29
f 28/71/30 57/53/30 30/72/30
f 38/73/31 62/74/31 40/75/31
f 6/76/32 44/77/32 45/78/32
f 16/79/33 49/45/33 50/80/33
f 24/56/34 55/81/34 26/82/34
f 34/61/35 60/83/35 36/84/35
f 10/67/36 48/85/36 12/44/36
f 20/68/37 53/57/37 22/86/37
f 30/72/38 58/87/38 32/59/38
f 42/62/39 62/74/39 63/88/39
f 6/76/40 46/89/40 8/65/40
f 16/79/41 51/69/41 18/90/41
f 2/64/42 44/77/42 4/91/42
f 26/82/43 56/92/43 28/71/43
f 36/84/44 61/93/44 38/73/44
f 64/94/45 73/95/45 69/96/45
f 50/80/46 70/97/46 71/98/46
f 58/87/47 78/55/47 79/99/47
f 50/80/48 72/100/48 51/69/48
f 43/63/49 65/101/49 44/77/49
f 58/87/50 80/102/50 59/60/50
f 52/70/51 72/100/51 73/95/51
f 44/77/52 66/103/52 45/78/52
f 59/60/53 81/104/53 60/83/53
f 53/57/54 73/95/54 74/105/54
f 45/78/55 67/106/55 46/89/55
f 60/83/56 82/107/56 61/93/56
f 54/58/57 74/105/57 75/108/57
f 46/89/58 68/109/58 47/66/58
f 62/74/59 82/107/59 83/110/59
f 54/58/60 76/111/60 55/81/60
f 47/66/61 69/96/61 48/85/61
f 62/74/62 84/112/62 63/88/62
f 55/81/63 77/54/63 56/92/63
f 49/45/64 69/96/64 70/97/64
f 63/88/65 64/94/65 43/63/65
f 2/1/1 4/113/1 3/2/1
f 4/4/2 6/7/2 5/5/2
f 6/7/3 8/9/3 7/8/3
f 8/9/4 10/11/4 9/10/4
f 10/11/5 12/13/5 11/12/5
f 12/13/6 14/15/6 13/14/6
f 14/15/7 16/17/7 15/16/7
f 16/17/8 18/114/8 17/18/8
f 18/19/9 20/22/9 19/20/9
f 20/22/10 22/24/10 21/23/10
f 22/24/11 24/26/11 23/25/11
f 24/26/12 26/28/12 25/27/12
f 26/28/13 28/115/13 27/29/13
f 28/30/14 30/33/14 29/31/14
f 30/33/15 32/35/15 31/34/15
f 32/35/16 34/37/16 33/36/16
f 34/37/17 36/116/17 35/38/17
f 36/39/18 38/42/18 37/40/18
f 38/42/19 40/47/19 39/43/19
f 12/44/20 48/85/20 49/45/20
f 40/47/21 42/49/21 41/48/21
f 42/49/22 2/1/22 1/3/22
f 41/117/23 1/118/23 39/52/23
f 3/50/23 5/119/23 11/120/23
f 7/121/23 9/122/23 11/120/23
f 11/120/23 13/123/23 19/51/23
f 15/124/23 17/125/23 19/51/23
f 19/51/23 21/126/23 23/127/23
f 23/127/23 25/128/23 27/129/23
f 27/129/23 29/130/23 35/131/23
f 31/132/23 33/133/23 35/131/23
f 35/131/23 37/134/23 39/52/23
f 39/52/23 1/118/23 3/50/23
f 5/119/23 7/121/23 11/120/23
f 13/123/23 15/124/23 19/51/23
f 19/51/23 23/127/23 35/131/23
f 29/130/23 31/132/23 35/131/23
f 35/131/23 39/52/23 19/51/23
f 3/50/23 11/120/23 19/51/23
f 23/127/23 27/129/23 35/131/23
f 57/53/24 56/92/24 77/54/24
f 24/56/25 22/86/25 53/57/25
f 32/59/26 58/87/26 59/60/26
f 42/62/27 63/88/27 43/63/27
f 8/65/28 46/89/28 47/66/28
f 20/68/29 18/90/29 51/69/29
f 28/71/30 56/92/30 57/53/30
f 38/73/31 61/93/31 62/74/31
f 6/76/32 4/91/32 44/77/32
f 16/79/33 14/46/33 49/45/33
f 24/56/34 54/58/34 55/81/34
f 34/61/35 59/60/35 60/83/35
f 10/67/36 47/66/36 48/85/36
f 20/68/37 52/70/37 53/57/37
f 30/72/38 57/53/38 58/87/38
f 42/62/39 40/75/39 62/74/39
f 6/76/40 45/78/40 46/89/40
f 16/79/41 50/80/41 51/69/41
f 2/64/42 43/63/42 44/77/42
f 26/82/43 55/81/43 56/92/43
f 36/84/44 60/83/44 61/93/44
f 66/103/45 65/101/45 64/94/45
f 64/94/45 84/112/45 81/104/45
f 83/110/45 82/107/45 81/104/45
f 81/104/45 80/102/45 79/99/45
f 79/99/45 78/55/45 77/54/45
f 77/54/45 76/111/45 75/108/45
f 75/108/45 74/105/45 73/95/45
f 73/95/45 72/100/45 71/98/45
f 71/98/45 70/97/45 73/95/45
f 69/96/45 68/109/45 67/106/45
f 67/106/45 66/103/45 64/94/45
f 84/112/45 83/110/45 81/104/45
f 81/104/45 79/99/45 64/94/45
f 77/54/45 75/108/45 73/95/45
f 73/95/45 70/97/45 69/96/45
f 69/96/45 67/106/45 64/94/45
f 64/94/45 79/99/45 77/54/45
f 77/54/45 73/95/45 64/94/45
f 50/80/46 49/45/46 70/97/46
f 58/87/47 57/53/47 78/55/47
f 50/80/48 71/98/48 72/100/48
f 43/63/49 64/94/49 65/101/49
f 58/87/50 79/99/50 80/102/50
f 52/70/51 51/69/51 72/100/51
f 44/77/52 65/101/52 66/103/52
f 59/60/53 80/102/53 81/104/53
f 53/57/54 52/70/54 73/95/54
f 45/78/55 66/103/55 67/106/55
f 60/83/56 81/104/56 82/107/56
f 54/58/57 53/57/57 74/105/57
f 46/89/58 67/106/58 68/109/58
f 62/74/59 61/93/59 82/107/59
f 54/58/60 75/108/60 76/111/60
f 47/66/61 68/109/61 69/96/61
f 62/74/62 83/110/62 84/112/62
f 55/81/63 76/111/63 77/54/63
f 49/45/64 48/85/64 69/96/64
f 63/88/65 84/112/65 64/94/65
